<svg xmlns="http://www.w3.org/2000/svg" viewBox="0 0 498.4 498.4"><title>download</title><g id="Слой_2" data-name="Слой 2"><g id="Capa_1" data-name="Capa 1"><path fill="#3eeef4" d="M494.4,249.2C494.4,114,384.4,4,249.2,4S4,114,4,249.2,114,494.4,249.2,494.4,494.4,384.4,494.4,249.2Zm-465.9,0c0-121.7,99-220.7,220.7-220.7s220.7,99,220.7,220.7-99,220.7-220.7,220.7S28.5,370.9,28.5,249.2Z"/><path fill="#3eeef4" d="M249.2,498.4C111.79,498.4,0,386.61,0,249.2S111.79,0,249.2,0,498.4,111.79,498.4,249.2,386.61,498.4,249.2,498.4ZM249.2,8C116.2,8,8,116.2,8,249.2S116.2,490.4,249.2,490.4,490.4,382.2,490.4,249.2,382.2,8,249.2,8Zm0,465.9c-123.9,0-224.7-100.8-224.7-224.7S125.3,24.5,249.2,24.5,473.9,125.3,473.9,249.2,373.1,473.9,249.2,473.9Zm0-441.4c-119.49,0-216.7,97.21-216.7,216.7s97.21,216.7,216.7,216.7,216.7-97.21,216.7-216.7S368.69,32.5,249.2,32.5Z"/><path d="M257.9,364.4l68.9-68.9a12.23,12.23,0,0,0-17.3-17.3l-48,48V142.7a12.3,12.3,0,0,0-24.6,0V326.1l-48-48a12.23,12.23,0,0,0-17.3,17.3l68.9,68.9a12.44,12.44,0,0,0,17.4.1Z"/><path fill="#3eeef4" d="M249.2,371.9a16.19,16.19,0,0,1-11.53-4.77l-68.9-68.9a16.24,16.24,0,0,1,23-23l41.17,41.17V142.7a16.3,16.3,0,0,1,32.6,0V316.54l41.17-41.17a16.24,16.24,0,0,1,23,23l-68.9,68.9A16.18,16.18,0,0,1,249.2,371.9Zm-68.95-93.4a8.25,8.25,0,0,0-5.82,14.07l68.9,68.9a8.43,8.43,0,0,0,11.74.1l68.9-68.9A8.23,8.23,0,0,0,312.33,281L257.5,335.86V142.7a8.3,8.3,0,0,0-16.6,0V335.76l-54.83-54.83A8.16,8.16,0,0,0,180.25,278.5Z"/></g></g></svg>