<svg xmlns="http://www.w3.org/2000/svg" viewBox="0 0 525 469.42">
<style>
path {
  fill:#35ebf1;
}
</style>
<title>home</title><g id="Слой_2" data-name="Слой 2"><g id="Layer_1" data-name="Layer 1"><path d="M513.05,186.78,270.35,9.09a13.28,13.28,0,0,0-15.71,0L11.94,186.78a13.3,13.3,0,1,0,15.72,21.47L262.49,36.31,497.33,208.25a13.3,13.3,0,0,0,15.72-21.47Z"/><path d="M505.18,217.32a19.6,19.6,0,0,1-11.69-3.83l-231-169.13L31.5,213.5a19.81,19.81,0,0,1-23.4-32L250.8,3.84a19.73,19.73,0,0,1,23.39,0l242.7,177.7a19.8,19.8,0,0,1,4.27,27.68A19.87,19.87,0,0,1,505.18,217.32ZM262.49,28.25,501.17,203a6.8,6.8,0,0,0,8-11L266.51,14.33a6.77,6.77,0,0,0-8,0L15.78,192a6.8,6.8,0,1,0,8,11Z"/><rect x="116.49" y="210.82" width="27.33" height="252.1" rx="13.67" ry="13.67"/><path d="M130.16,469.42A20.19,20.19,0,0,1,110,449.26V224.49a20.17,20.17,0,1,1,40.33,0V449.26A20.18,20.18,0,0,1,130.16,469.42Zm0-252.1a7.18,7.18,0,0,0-7.17,7.17V449.26a7.17,7.17,0,0,0,14.33,0V224.49A7.17,7.17,0,0,0,130.16,217.32Z"/><rect x="381.16" y="210.82" width="27.33" height="252.1" rx="13.67" ry="13.67"/><path d="M394.83,469.42a20.19,20.19,0,0,1-20.17-20.16V224.49a20.17,20.17,0,1,1,40.33,0V449.26A20.18,20.18,0,0,1,394.83,469.42Zm0-252.1a7.18,7.18,0,0,0-7.17,7.17V449.26a7.17,7.17,0,0,0,14.33,0V224.49A7.17,7.17,0,0,0,394.83,217.32Z"/></g></g></svg>