<?xml version="1.0" encoding="utf-8"?>
<!-- Generator: Adobe Illustrator 17.1.0, SVG Export Plug-In . SVG Version: 6.00 Build 0)  -->
<!DOCTYPE svg PUBLIC "-//W3C//DTD SVG 1.1//EN" "http://www.w3.org/Graphics/SVG/1.1/DTD/svg11.dtd">
<svg version="1.1" id="Layer_1" xmlns="http://www.w3.org/2000/svg" xmlns:xlink="http://www.w3.org/1999/xlink" x="0px" y="0px"
	 viewBox="0 0 40 40" enable-background="new 0 0 40 40" xml:space="preserve">
	 <style>
path {
  fill:#5ff1f6
}
</style>
<path fill="#444444" d="M30.3,36.1V22.7c0,0-0.8-2.8-3.4-2.7c-2.7,0.1-3.6,0.5-4.8,2v14.1h-6.8V14.9h6.8V18c0,0,2.3-4.4,6.8-4
	c4.2,0.3,7.4,2.9,8.1,8.4h0.1v13.7H30.3z M7,12.1c-2.3,0-4.1-1.8-4.1-4.1S4.7,3.9,7,3.9s4.1,1.8,4.1,4.1S9.3,12.1,7,12.1z
	 M10.4,36.1H3.6V14.9h6.8V36.1z"/>
</svg>
