<svg xmlns="http://www.w3.org/2000/svg" viewBox="0 0 77.27 100.25">
	<defs>
		<style>
			.cls-1,.cls-2{fill:#92fffc;}.cls-1{opacity:0.6;}
		</style>
	</defs>
	<title>
		globe_basic
	</title>
	<g id="Слой_2" data-name="Слой 2">
		<g id="Layer_6" data-name="Layer 6">
			<path class="cls-1" d="M72.13,52.62l.1-4.54-.48-4.43h0v-.08h0l-.83-4.41L69.5,34.85h0l0-.06v0h0L67.76,30.7l-2.24-3.95,0,0-.11-.15h0l-2.51-3.54-3.11-3.57h0l-3.19-2.89-3.77-2.88h0l-.14-.1-.41-.21h0l-3.16-1.82h0L48.05,11h0L44.42,9.29,39.29,7.61l0,.07,1.43.55.09.14,0,0L36.9,7.23l-1.07-.11,2.88,1.39-.58-.26L36.2,8.13,33.11,7l-1.66,0h-.07l.23.36.14.36.07.39H29.56L28,6.9h0l-1.81,0h0L24.78,8.13l-2.29.12V7.86l.05-.37.14-.37-1.74.14L18,8.6h0l-.56,1.07-.17.6L14,12.71h0l0,2.69-3.44,3.47h0l.7,3.63L7.76,26.9l1.47,4.43L6,36.36H6l2.21,5L5.31,46.72v0L8.18,52,5.83,57.31v0l3.4,5.1-1.71,5h0l3.73,4.66-1,4.31v0L14,80.34l-.35,3.41v0l3.74,3,.29,2.39v0l3.45,1.94.51,1,.35.39h0l3,.88h1.75l-.18-.28-.1-.59,2.27-.08,1.43.83h0L32,93.12h0l1.49-1,2.23-.23,0,.29-.1.3-.22.32,1.7-.25,3-1.26,1.7-.32-1.8,1L40,92,44,90.53l-1,.45,0,.07L48,88.9l3.43-1.85,0-.07-.45.21,4.45-2.91.12-.11.1-.06.19-.2h0l2.45-2.26.18-.16,0,0,.26-.27h0l.76-.71L62,77.88h0l.21-.18.11-.15,0,0h0l2.79-3.87L67.31,70h0l1.94-4.33,1.37-4.05h0l.05-.16,0,0,1-4.46.46-4.33h0v-.09Zm-.07.05-.1.07-.43.15,0-.69,0-.69-.27-6.32-.07-1.49.54-.05.47,4.43ZM35.74,91.79,33.49,92,32.8,91l-.15-.24,1.94-2.09,1.21-.12,2.11-.21.3,1.83-2.28,1.54Zm-9.28.62L25.74,92l-1.78-1,0-.14.26-1.74,1.67-.06,1.72-.06,2,1.84-.88,1.43ZM16.65,58.76,17.47,57l3.32-.14,2.86-.12,2.05,3,1.37,2-1,1.94-1.65,3.19-5.85.23L15,62.27ZM31.86,8.08l1.8,1.12.84.53-.13,2.1-3.35,0L28.85,9.71l.72-1.63Zm10.28.71h0l.49.08,2.07.9,2.26,1,.33.24.93.67,1.52,1.09-1.61-.23-1.34-.78-1.69-1h0L43.26,9.68l-1.39-.81-.3-.18.57.1h0ZM70.3,60l-.15.89.07-.7.1-.3ZM46.86,87.05l.06-.09,3.69-3,2.46-.55-1.69,2.42-2.27,1.48-1.67,1.1-1.83.44Zm-8.58,3-.08-.52L38,88.26l.93-.9,1.9-1.86,3.51-.45-.08.9-.13,1.45-3.24,2.34-2,.27Zm-17-3.37.85-3,2.39-.08,2-.07L27.72,85,29,86.47,27.62,89l-3.4.11L21.53,87Zm5.24-3.2-4.4.16-3.36-3.4,1.43-4,2.88-.1,2.36-.09,3,3.81-1.32,2.5Zm20.7-72.79-.12-.06.13.05.07,0Zm-.66-.26,0,0-.27-.11.17.06Zm6.23,73-2.1.47.64-2.83,2.39-2.59,1.19-1.29,1.57-.31,1.43-.28-1,3.24-3.75,3.5ZM28.11,80.6l.33-.62,2-.13,2.87-.18L35.42,83l-2.37,3.18-1.32.08-2.64.17-2.55-2.87Zm-.34-9.07L24.48,67l2.66-5.13,6.13-.32,2.52,4,.51.81L34,70.25l-.57,1-2.28.13Zm-10-45.27-1.83-4,3-3.87L22,18.21l1.37-.07,2.26,3.61-.62,1L23,26l-.4,0Zm26.8-15.73-.6-.33-.8-.51,1.51.89Zm1.11.7,2.44,1.35.2.26L50,15.06l-2.52-.2-4-2.75-1.51-2,1.89.18ZM61.33,22l.46.59-.12-.14h0l0,0L61.33,22Zm4.26,6.14.08.12L68,33.16l-1.55-2.85-.92-2.16Zm-1.85-3,1,1.24h0l1.66,3.87-.28,0-1.23-.12L62.53,27l-.81-1.07L60.2,22.27l1.4.25v0h0ZM44.34,85,41,85.41l-.14,0-1-2.82,3.06-3.77,1.5-.17,2.82-.33.51,3.27L45.3,84ZM28.43,79.9,26,76.81l-.56-.72,2.32-4.48,2.44-.14,3.21-.18.47.74L36,75.46,33.34,79.6l-1.77.11Zm-.88-49.41,4-.15,1.67,2.36,1.67,2.37-2.58,5.18-3.91.16-2.24.1-3.15-5,2.85-5ZM23.6,17.87l2.11-3.08,3.4-.1.6,0,2.69,3.16L31.09,20.6l-.46,1-4.94.16L23.44,18.1Zm16.06,5.37-.72,2.29h-.2l-5,.11L30.7,21.59l1.77-3.73,4.34-.05,3.42,3.63Zm10.47-8.16-1.68-2.16-.25-.32,1.67.25.13.09h0l2.57,1.74h0L53,15l1,.67,1.67,2.16.56.72-2.07-.24-.15-.13ZM71,48.35l-1.1.13-.49.06-1.51-4.67L68,39.15h1.57l1.46,4.53Zm-28,30.42-.58-1.34-1-2.39L43,72.53l1.42-2.09,5-.49,1,3.15.28.92-3.36,4.25-.18,0Zm-9.42-7.52,2.88-4.9,5.7-.41.34.69,1.92,3.77L43,72.35,41.21,75l-3.76.31-1.35.11L35,73.59Zm3.4-15.17,5.38-.31.57,1,2.24,3.93-1.64,2.82-1.37,2.35-5.7.4-3-4.8,2.93-5.35ZM35.76,45.39l-3.41-5.1,2.57-5.19,5.73-.19,1,1.42,2.49,3.5L42.74,43l-1,2.15-5.5.25ZM61.63,25.9l-2.37-.17-3.73-4-1.28-3.36,1.17.13.92.11.2.2,1.36,1.29,2,1.93.19.19.81,1.93Zm-2.48-4.7h0l0,0-2-1.88.93.73.61.67ZM59.74,30l3.17,4.5L62.74,37l-.16,2.23-2.29.06-1.37,0-3.15-4.73,0,0,.55-4.58,1.76,0ZM42.13,65.91l.17-.3,2.85-4.87,3.7-.29,1.66-.13,1.8,4.24.18.41-1.8,2.82-1.33,2.09L48,70l-3.62.36-1-1.9Zm7.52-26.29,1.55-5,4.48-.08L57.29,37l1.57,2.36-1.34,5-2.38.11-2.3.11L51.7,42.82ZM57,64.44l-.61.07-3.84.42-.76-1.79-1.22-2.86L53.3,55,58,54.63l1.77,4.75-.94,1.74ZM50.65,50l.71-1.7,1.49-3.59,4.68-.23,2.53,4.91L58,54.56l-4.45.36-.22,0-1.37-2.59Zm6.41,14.52,2-3.79.69-1.27.69-.08L63.44,59l.73,4.46-2.76,4.79-3.4.55-.82-3.72Zm6.39-5.57-2.54.3-1.11.14L58,54.59l2.08-5.2,1.77-.13,2-.15,1.61,4.75L65,55Zm2.09-5.09-.78-2.28-.84-2.47.07-.3,1.13-4.71,2.28-.13.38,0,1.52,4.68-1.11,4.9ZM65.05,44l-1.2,5-3.73.27L57.59,44.4l0-.06,1.32-5,3.67-.1.28.55ZM56.22,29.91l-.43,3.58-.12,1-4.48.07-1.56-2-2-2.62.88-4.37,4.07,0,3.5,4.15Zm-6.63,9.75,2.72,4.25.47.73-2.19,5.29-5.51.32-3.23-5.1,2.35-5.29,1.38,0Zm-4.5,10.66,5.5-.32.77,1.45L53.24,55l-.87,1.66-1.86,3.6-5.36.43-.58-1-2.24-3.92,2.53-4.95Zm9.6,23.11-4,.55-1.25-4.06L52.55,65,57,64.52l.95,4.31-.17.23Zm9.55-10L63.52,59l1-2.51,1-2.54,2.65-.33.59,4.53-2,4.83-1,.2Zm3.53-19.58L65.11,44,63.4,40.65l-.74-1.44.08-1.14L63,34.52l1.71,0h.87L68,39.12Zm-3.08-9.38-1.72,0L59.8,29.93l-.32-2.57-.2-1.55.59,0,1.8.13,3.17,4.2.7,4.29Zm-8.1-15.69-.21-.2h0L54.62,16.3l3.17,3.43Zm-1.11,3,3.72,4,.52,4.13H59.1l-2.82,0L56,29.48l-3.34-3.95v-.14l-.21-3.74.83.05ZM48.41,18l2,1.87,1.89,1.76.11,2,.11,1.85-2.21,0-1.86,0-3.75-4,.2-3.55L48.4,18Zm-.85,12,3.57,4.65-1.55,5-3,.11-2.42.08L42,36.64l-1.26-1.77L42,31.47,42.57,30l2,0ZM42.5,30l-1.74,4.52-.12.31h-.45L34.92,35l-1.67-2.37L31.58,30.3l2.21-4.58,2.36-.06L39,25.6l.49.61ZM32.94,50.92l2.83-5.46,4-.18,2-.09L45,50.29l-1.84,3.6-.91,1.8-2.42.14-3.6.21-.3-.47Zm2.55,32-.62-1-1.46-2.32.24-.37L36.1,75.5l5.11-.42.4.89,1.24,2.83-3.06,3.76-2.87.26ZM51.23,81l-1.31.21-2.11.34-.51-3.27,3.36-4.25,2.64-.37,1.38-.19,0,.77.1,2.88-2.19,2.38ZM61.41,69.8l.06-1.51.94-1.63,1.82-3.17L66.77,63l-.34,4.15-2.77,4.49-2.35.58Zm-2.1-50.34h0L61,21.65l.58.78-1-.18-.36-.07-6-6.48,1.18.28,3.78,3.24ZM47.54,14.94l2.55.2,3.79,3,.28.22,1.28,3.37-1.28-.06-1.77-.09-3.93-3.64-.61-2Zm-2.86,6.54,3.75,4-.88,4.38-2.56,0-2.43,0-3-3.71-.56-.7.05-.15,1.24-3.94h4.38ZM23.07,26.05l.61-1,2-3.26,4.95-.16,3.09,4.05-.52,1.07-1.7,3.51L30,30.32l-4.17.15-1.14-1.82Zm3.06,14.53,3.78-.15,2.37-.1,3.42,5.1-1,2-1.81,3.5-4.6.22-1.71.08L23.2,46l1-1.87Zm.45,10.67L30,51.09,32.88,51l.86,1.33,2.45,3.79-.25.47-2.67,4.89-6.14.32L23.71,56.7ZM27.69,89l1.4-2.53,1.77-.12,2.19-.14,1.48,2.33-2,2.1-2.89.19-.8-.73ZM44.4,85l2.3-2.29,1.09-1.08,3.41-.55-.54,2.36-.1.47-3.69,3-2.68.47Zm13.49-8.5-3,.59-.12-3.65L58,68.87l3.4-.55-.17,4-1.51,1.92Zm8.62-9.41L66.85,63l2-4.83,1.55-.37L70,62l-2,4.59Zm2.34-9.06-.59-4.53,1.11-4.91L71,48.43l.51,4.51L70.4,57.69Zm2.54-6.43-.25-2.17L71,48.39l.06-2.11,0-1.5.29,6.73ZM69.67,39.09h0l-.6-3.32,1.7,6.75Zm-.08,0H68L66.36,35.9l-.74-1.4L65,30.67l-.07-.46,1.27.13.25,0,1.46,2.69.56,1,.32.59v0l.17.94ZM45,10.8l0,0,.19.11Zm2.72,5.09.62,2-3.46-.11-3.72-3.2L40.76,12l2.73.13,4,2.75Zm-6.61-1.22,3.59,3.08.13.11-.16,2.83,0,.71H40.29l-3.07-3.26-.35-.38,0-.16.66-3,1.83,0Zm-3.64-.08-.7,3.15h-.94l-3.4,0-2.69-3.16L31,11.92H34.4l.82.7ZM31,11.89,29.7,14.6l-4,.12L25,13.6l-1-1.52,1.82-2.25,2.92-.07,1.34,1.31Zm-7,.23,1.42,2.24.24.39-2.27,3.32-.45,0-4,.19-1.16-3.12,2.77-2.87ZM21.25,26.17,23,26.09l1.25,2,1.51,2.41-2.51,4.38-.34.61-5.87.26L14.59,31l3.15-4.7ZM34.6,88.54,33.12,86.2l2.12-2.84.25-.33,4.3-.39,1,2.82-.86.83-2,1.92-.7.07ZM57,79.82l.81-2.71.17-.53,2.72-3.47.62-.8,1.76-.43.57-.14-1.2,3.58h0l-.25.28-2.66,3-.51.59-1,.28Zm2.08-.54h0l2.4-2.74-3.71,4.68,0,0,.9-1.32Zm3.46-4,1.08-3.2.12-.36,1-1.68,1.74-2.83.58-.19.89-.3-1.32,3.82-1.39,2.1-.31.47h0l0,.06h0l-1,1.55-.09,0Zm4.8-6.44.34-1,.17-.5.23-.41-.44,1.14Zm3-9,.21-2.08.77-3.47-.84,5.1ZM41.46,8.6l-.08,0-.5-.15,0-.08.61.25ZM37.2,9.81,40.68,12l.16,1,.27,1.6h-.77l-2.79,0L35,12.34l-.56-.49.06-1,.06-1.13,1.61,0Zm-11.39,0L24,12l-3.41.17-.36-1.57-.12-.53,2.38-1.79,2.31-.11ZM14,41.09l3.08-5.25,5.87-.27,3.15,5L23.13,46l-5.84.25-.34,0L15.68,44Zm.14,10.65L17,46.29l2.5-.11L23.14,46l3.37,5.2-2.87,5.45-4.24.17-1.93.08-1.59-2.44Zm4.45,15.49,3.26-.13,2.6-.1.77,1.08,2.51,3.5-2.32,4.48-5.25.19L16.58,72l.76-1.83ZM40.4,90.81l.13-.25.08-.16.3-.6,3.25-2.35L46.81,87l-.76,1.11-.55.81-3.61,1.93-1.79.33Zm10-3.34-4.85,2.36,5.86-3.91.42-.13,1.1-.35-.61.49Zm2.69-2.16-1.6.51,1.39-2,.29-.42,2-1.88,1.73-1.62,1.62-.47.38-.11-.15.22-1.27,1.86-.09.12-.23.35-.22.31-1.72,1.39ZM68.25,66.42l-.29.51.09-.27.86-2,.24-.55-.09.22Zm3.41-22.84-.53.05,0-.16L71,42.89l-1.26-5-.81-3.2.54.11,1.41,4.35Zm-2.27-8.83-.54-.11-4-8.18.17.07h0l.36.15,2.31,4.06ZM62.88,23.12l2.4,3.4h0l-.21-.07h0l-.27-.1L64.48,26l-.79-1-1.15-1.46h0L61.4,22h0l-1.07-1.37-1-1.32h0l.21.11.27.14ZM52.67,13.68l.14.11h0l3.77,2.88,2.91,2.64-.31-.15L55.51,16h0l-.92-.75-2.05-1.66Zm-3.25-1.83,2.81,1.61,3,2.42-1.13-.28-1.4-1h0l-2.12-1.47h0l-1.22-.85-1.24-.86h0l-.92-.64.1,0,.19.05h0l.14,0h0L48,11Zm-5-2.49L47,10.58l-.54-.21h0l-1.25-.48-.5-.19h0l-2.08-.91-.49-.08-1.49-.57ZM36.88,7.3l4.47,1.35.17.11.21.13h0l2,1.29L42,10l-.59-.28L40.08,9.1h0L36.25,7.23Zm1.23,1,3.8,1.75,1.51,2L40.78,12h-.05l-2.67-1.69-.82-.52L37,9.16l-.69-.95ZM31.68,7.23,31.52,7l1.57,0L36.16,8.2l.74,1,.25.53L36,9.7l-1.4,0L34,9.33,31.9,8l-.08-.42ZM26.16,7l1.77,0L29.5,8.06l-.72,1.62-2.9.08-1-1.59ZM17.52,9.71l.54-1,2.88-1.34,1.62-.13-.11.28-.05.38,0,.41L21,9.37l-.91.69-2.68.2Zm-.2.63,1.8-.14.9-.07.48,2.11-1.17,1.22-1.6,1.65-3.68.27,0-2.62ZM14,15.46l1.34-.1,2.36-.17.3.8.86,2.33-3,3.87-4.55.3-.69-3.58Zm-2.74,7.11,4.56-.3,1.83,4-2.08,3.11L14.53,31l-5.23.3L7.84,26.92Zm-2,8.8,3.64-.2,1.6-.1L17,35.8l-3.07,5.25-1.22.06-4.44.21-2.2-4.94Zm-1,10,4-.19,1.64-.07.45.77,2.53,4.35L14,51.7l-1.33,0-4.47.17L5.38,46.74Zm0,10.6,2.53-.09,3.28-.12.16.26L17.41,57,16,60l-1.06,2.24-5.65.15L5.91,57.32Zm1,10.48,5.65-.15.05.07L18.5,67.2l-1.07,2.55L16.51,72,15,72,11.28,72l-3.7-4.62Zm2,9.65,1.13,0L16.52,72l3.55,4.26L18.91,79.5l-.27.75-1.92,0-2.63,0L10.27,76.4Zm2.81,8.24H15.9l2.75,0,1.23,1.25L22,83.73l-.33,1.13-.53,1.83H17.47l-3.71-3Zm3.39,6.42h3.67l3,2.4L24,90.62l-.07.44H21.2l-3.42-1.93Zm9.13,6.5H25l-3-.87L21.73,92l-.48-.91h2.66l2,1.05.54.3.11.62ZM32,93.05l-1.76.12-1.38-.81.87-1.42,2.88-.2.84,1.31Zm5.08-.59-1.53.22.12-.18.12-.32,0-.33,2.45-1.66,0,0,2.55-.35-.36.7L40,91.2Zm3.35-.71L45.51,89h0l1.73-.41-.3.2-1.7,1.17h0l-.19.12,0,0-.09,0-.28.1h0ZM48,88.83l-2.08.91,1.14-.55,2.82-1.38Zm7.51-4.72-.12.11-4.32,2.83,1.5-1.21.74-.59h0l3.42-2.76.3-.25.25-.11.78-.37-2.27,2.09-.29.26Zm2.74-2.51-.81.37-.3.14.1-.12L58,81h0l3.75-4.73h0l.29-.37.43-.53,1.31-.55-.49.75-.52.8L61.72,78l0,0-.2.2-2.87,3h0Zm6.82-8-2.79,3.89h0l-.11.15-.25.21L64.43,74,65,73.2v0h0l1.72-2.6.36-.27Zm4.13-7.93L67.25,70l-.13.16-.36.28,1.56-4,.24-.63.7-1.79h0l.77-2,.45-.27,0,0ZM71.59,57l-1,4.57-.12.12-.39.24.42-2.59.17-1L71.36,54h0L71.53,53,72,52.8l.06,0Z" />
			<path class="cls-2" d="M77.13,52.91l.1-4.92,0,0,0-.27v0h0l-.53-5h0l0-.14v-.11h0l-.93-4.93h0l0-.09,0-.16h0l-1.53-4.72h0l-.09-.21,0-.07h0l-1.93-4.61h0l0,0L72,27.29l0,.07-2.3-4.06.11.06-.34-.48,0,0h0L66.54,18.8h0l0,0-.25-.39v.11l-3.35-3.85h0L59.28,11.3v0l0,0-.33-.34L59,11,54.9,7.93h0l-.15-.12-.46-.24L50.64,5.47h0l-.38-.25,0,0-.9-.52h0l-4.17-2L39.25.83l-.08.24,1.62.63h0L36.48.38,34.8.21l2.75,1.34-1.86-.12L32.14.07,30,0l.35.54.15.4.06.35H28.05L26.21,0,24.05.06,22.5,1.43,20,1.56l0-.35L20,.8l.2-.55L18.09.42,14.67,2,14,3.29,13.81,4,10.1,6.75l0,0L10,9.9l-4,4,.81,4.21-4,5.08,1.7,5.13L.77,34.2,3.32,40,0,46.21l3.32,6L.63,58.41l0,.06,3.92,5.91-2,5.73,0,.07,4.3,5.39-1.2,5,4.43,4.54-.4,4L14,92.58l.34,2.8,4,2.25.6,1.11.42.47,3.46,1H25l-.28-.43-.09-.58,2.5-.08,1.62.94,0,0,2.08-.14h0l1.72-1.19L35,98.54l0,.22-.12.33-.35.51,2.15-.3,3.42-1.47,1.44-.27-1.62.88.1.23,3.54-1.29.09.19,5.66-2.48h0l3.94-2.14-.07-.15,4.65-3.05v0h0l.12-.1v0l.11-.07.21-.22,3.44-3.17-.12,0,.61-.56v.08l.26-.32,0,0h0l2.93-3.06.24-.21.12-.17,0,0h0l3-4.19v.11l.21-.41,0,0h0l2.5-4.14h0v0l2.08-4.67,0,.12.13-.46v0h0l1.55-4.64h0v0l.18-.52L75.5,63l1-4.53,0,.09,0-.43v0h0l.52-4.95h0V53.1l0-.2ZM45.41,96.06l2.31-1.2L48,94.8l-2.59,1.3h0Zm-26.89-3.6,0,0,.94-3.28L22.8,89,24.44,89l1.18,1.33,1.69,1.91-.89,1.62L25.75,95l-1.89.07-1.95.06-.74-.59ZM17.22,3.84l2.67-2,2.59-.14.2.32.93,1.43L21.57,6l-3.65.19h-.17l-.21-.89Zm10.87-2.3h2.56l2.67,1.67.31.19,0,.46L32.43,4l.86,1.73H29.74L27.31,3.32,28,1.85Zm7.83.15,1.93.12,1.91.88-.11.05,2.88,1.53L43,5,42.72,5,38.21,3.15l0,0L37,3.37l-.07,0-.31-.68ZM76.35,57.83l0,0-.14-.07.06-3.11.19-1.16.21-.07-.28,4.44Zm-2.68,9.94,0,0-.11-.1,0,0,.31-1.38L74.69,64l0,0-1,3.78ZM69,76.89l-.06-.08.71-1.09L69,76.94ZM47.7,95.35l.71-.48,3.12-1.57-1.64,1ZM41,95.9l-2.88.4-.08-.52-.25-1.48.11-.11.46,0,3.43-2.52,1.52.14-2.44,2.6,1.45.24,1.48-.8-2.63,1.9ZM31.47,97l-3.26.22L26,95.14l.67-1.23.89-1.6,3-.2L32,92l1.64,2.6L32.28,96.1ZM15.62,85l1.62-4.48,3.26-.12,2.68-.1,3.38,4.34-1.65,3.13-.49.93-5,.17-3.58-3.64ZM15.4,69.76l-4-5.58,2.8-6,7-.29L21.91,59l3.15,4.69-3,5.86-4.9.19ZM14.15,57.91,10.33,52l3.24-6.22,2.2-.1,4.82-.21,2.74,4.25,1.09,1.68-3.21,6.14,0,.09-6.69.28ZM17.7,6.41l.47,0,3.39-.17.86,1.37,1,1.6-2.56,3.75-5,.25-1.3-3.51ZM56.15,9.48l.73.61-1.8-1.23,0,0-.17-.09-.07-.05h0L51.52,6.42l.37.19ZM54,7.72l.19.11.17.14Zm5.09,3.79v0l-.54-.46.52.35Zm.23.18.4.41-.42-.37,0,0h0Zm7.15,7.49,0,0,1.92,3.06-.73-.94-.39-.71L67,20.28l-.61-1Zm5.48,8.75,1.57,4.23-.19,0-.43-.89L71.83,28l.1-.06ZM60.33,86.8l-.28.13.43-.55.65-.5.18-.21.95-.77h0l0,.12-1.13,1.11ZM16.73,33.53l3.61-.17L23.91,39l-3.33,6.17-7,.31-3.39-5.86,3.5-6ZM21.78,6.09l2-2.53,3.29-.08,2.43,2.4-1.4,3L24.76,9l-1.12,0-1-1.61Zm-.7,7,.12-.19L23.64,9.3l1.23,0,3.3-.1.87,1,2.16,2.55-1.48,3.14L29.21,17l-5.59.19-.36-.59ZM45.2,4.44,49.27,6.7l-.08,0L48.62,7,44,4.76h0L42.7,4.08l-.15-.21,1.6.16ZM46.57,92.1,45,93l.19-2.1v-.11l.57-.41,1.77-1.27,1.59.22-2.36,2.62Zm-14.35-.21,1.3-1.74,1.38-1.86.4,0-.13.18.21,3.07h2.16l-.95,2.61.74,0-3.46.34Zm-5.45-7.38-2-2.61-1.34-1.73L26,75.07l2.68-.15,3.73-.22,2.72,4.38.24.37-.81,1.25-2.24,3.47-4.57.28ZM25.29,63.76l5.93-.31,1-.06,1.69,2.68,1.75,2.8L34.46,71l-2,3.47-3.77.22L26,74.82l-3.73-5.21ZM66.5,78.92l-.39.17,1-3,.31-.94.94-1.52,1.42-1.88,1,.39-2.12,4.54-1.8,2.12ZM35.64,88.23l1.25-.12,2.85-.26.34,1-2.43,2.43h-2l-.19-2.74Zm-3-13.66,2-3.48L35.92,69l3.89-.27L40.43,70,37.85,74.1l0,.05L39.26,78l-.73,1.07-.54,0-2.39.2h0Zm6.54-17.63,3.42-.2,2.6,4.58-1.85,0-2.07.06L39,57.25ZM64.87,18.25l2.44,3,1.33,2.26-.72.22-.19.06-3.42-3.88h0l-.18-.29L63.44,18l.26.05ZM39.33,56.68l2.08-3.81,3.08-.1-.15.3L42.6,56.49h-.14Zm-.08-47.8.16,0,0,0ZM68.78,23.76l.37.56,1.16,2.74-1.51-.15-1-2.87L68,24Zm4.27,38.49-.09.18-2,3.94L71,65.13V65l2-5,0,1.73ZM55.14,88.92l.14-.21L57.07,87l2.51-2.36.18,0-2.17,2.66-1.18.79Zm0-2.55-.65-.14-.89-.18.65-1.32,2.92-3.19,3-.6-1,2-.11.22-.08.07ZM39.26,32.65l1.5,0,0,0,1.61,2.29-.72,0-1.6.08-1.72-2.37Zm34.91,10-.2,2-.29,2.81h0l-1.46-4.51.18-4.44,0-.4,1.69,4.36ZM73.1,57.42h0v.21Zm-.25,0,.25,1.94-1.18,2.88-1.09,2.66-1.08.2-.87.17V64.09l0-2.31,2.14-4.52h.23ZM69.79,70.82l-1.64,2.66L67,75l-1.32.33L65,75.2l1-4.33L66.5,70l2.3-3.4,1.25.19.59.1,0,.34ZM50.86,11.94,52,13.77l-1,.15-1.18-1.1L49,10l1,.61Zm13,7.82.07.17-.23.05-1.29.29-3.84-3.56-2-3.23,1.94.23.23,0L59,14,62.23,17Zm4.31,6.18.14.44L65.86,23l-.72-1-.64-1.54L67.58,24Zm3.87,9.77L72.22,37l-.09-.18L69.63,32l-.55-3.36h0L71.8,33ZM70.78,65.14l-.12,1.54-.58-.1-1.21-.19v-.88l.83-.16ZM49,85.47h0l-.42-2.68L52,78.35l1.3.06-.68,3.71-2.87,2.65Zm-8-53L43.06,27h0l2.59,3.23.32.41-1.35,4.22-1.94.1-.24-.34Zm4-9.91,2.62-.21,1.6,1.77-.5,2.52-5.47.08-.12-.14.82-3.94Zm13.31-9.11-1.82-.22h0l0-.07,1.2-.35.82.66Zm15.13,34H71.55L70,43.13,72,43l1.36,4.23ZM47.8,65.6l-1.31-3.15,5.6-.44.77,1.81.07.17-1,1.6H47.8Zm-2.06-22-3.18.13,2.38-5.37,2-.07.65.93L46.5,41.74Zm5.53-29.42.91-.14L56,17.08,54.34,17l-.2-.19Zm7.21,2.78,3.7,3.43.13.12.45,1.37-.5,0L58,17.24,57.92,17Zm11,15.25,2.73,5.23v.28l-1.92.13-2.54-4.42-.12-1.24h1.86ZM67.79,65.54l-.68,1.19-2.22,3.86-1.59-.17,0-2.07v-2.3l.31-.5,2.35-3.85,1.25.08h0ZM51.94,48.05l1,0-.74,1.8-4.56.26,1-1.92ZM47.72,18.92v-.53l2.37-.25.66-.07,2.65,2.53,1,.94H54l-4.12-.05-2.13-2.3ZM67.46,49l1.05,3.1-1.41,0-1.09-3h.13ZM52.37,77.91l1.31-.19.14,0-.41.47-1.2-.06Zm0-.26L51,73.05l.43-.67,1.68-2.24,1.06,0,2.46.07.14,4.1-2.68,3.07ZM49.55,23.49l.35-1.75,4,.05h.54l.21,3.79-3.51.3-1.38-1.51L49.44,24Zm3.58,46.4,0-.16,1.46-2.3L58.6,67l.22,0-.26.37L56.67,70l-2.51-.07ZM55.5,52.22l-2.23-4.34,1.64-4,2.15-.11,2.31-.11,2.07,4-1.09,2.59-.81,1.91-.71,0ZM60.82,71.9l1.26-.21L59.83,74.5l-.8-.06Zm-1.25-5.28-.23,0,.47-.65h.1ZM53,32.28l2.85-.05,1.86,0-.23,1.86-3.87.25-.88-1.16ZM62.45,25l.15,1.18.06.48-1.21,0-.12-1.44v-.05Zm-7.56.67L54.69,22l4,4.71-.34,2.83h-.09L57,28.12Zm7.84,1.24,3.62,5.16-.1,1.36-1.54.13-1.24-1.7-1.8-2.47-.2-2.5Zm3.11,10.49-1.47,0,.4-3.63,1.46-.13L66,37.38Zm-7.57-7.55L58,31.94h0l.26-2.11Zm4.12,1,2.13,2.93-.4,3.72-2.25.06-1.49-2.25L58.26,32l.13-1.09.14-1.13,3-.26Zm-.64,7.54.16-.58,2.18-.06,0,.51ZM58,32.19h.09l3.61,5.45-.18.69-.91.05-2.85-4.23Zm2.64,6.44.81,0-1.09,4.16-.17.63-.64,0-.16-.29Zm-1,5,.54,0,.62,1.2,1.37,2.68h-.52l-1.43-2.76Zm2.81,3.84-.2-.39-1.86-3.62,1.3-4.92,2.39-.13,2.39,4.42L65.2,47.44Zm1.9-9.83,1,0,.72,0,2.56,5-1.9.07-2.4-4.44ZM59.76,52.28l1.9-4.51.63,0,.76,1.49L60.76,55Zm4.38-4.56,1.07,0,.45,1.23-2.4.18-.69-1.35ZM61.22,26.87l.2,2.43-2.86.25.32-2.72,1.16,0ZM50.77,28.79l.41-2.66h0l3.48-.3L58,29.75,57.75,32l-1.91,0L53,32l-2.26-3Zm1.32,2.49.69.9-.23.72-2-2.64.14-.84Zm1.57,3.28,3.88-.25,1.68,2.5,1.16,1.72L59.13,43l-.4,0-3.64.14-2.71-4.25Zm5.26,8.71h.23l.09.17-2.17.1-2,.1.09-.21ZM54.83,61.46l3.86,0,.92,4.34-.6.85-4.46.5L53.21,64Zm2,8.7,2.29-3.24.4,0,1.06,4.89-1.87,2.66L57,74.28Zm7.9.67-.11.19-2,.32.55-.68Zm-1.71-.34-.74.91-1.47.24-1-4.57-.07-.32.41-.75.7,0,2.13.09v2.3Zm-.37-9.65-1.76,3.28L60,65.75h-.19l-.92-4.36,2.28-4.08.1-.18,1.35,3.64Zm6.18-18.2-2.64-5.17.27-3.83,1-.08L70,38l-.47,4.64Zm-1.42-9.33-.94.08.09-1.25h.73Zm-.9-1.42-3.62-5.17L62.7,25l1.07-.15L67,28.85l.3,3ZM62.67,24.7l-.33-2.64.51,0,.81,2.47ZM62.08,22l.34,2.75-1.18.16L57.65,21.1l-1.17-3.74,1.36.07L62,21.86ZM57.5,21.3l3.57,3.77.12,1.55-1.25,0-1.11,0-4.15-4.94,1.64-.2Zm-6.56,4.75-.43,2.75-1.6-2.09.47-2.38ZM51,38.1l.48.75L47.78,39l-.57-.79Zm.2-.15,1.41-4.51.78,1-1.28,4.36h-.34ZM55.5,52.47l3.34,0,.7,0,0,.08,1,2.71-2.78.22-2.38.2-.78-1.48Zm-.08,3.39,5.24-.43.52,1.41-2.46,4.4-2.55,0H54.84l-.93-2.43Zm3.45,18.82.87.07-.85,4-1.67,1.61-.1-3.19Zm4.21-8.79-2.76-.13L62.9,61l.41-.05,2.24-.27.18.91-2.49,4.07Zm3-17h-.2l-.49-1.34L66.7,43l2-.07.09.17-1.35,5.72Zm3.47-6v0l-.59,0,0,0Zm-13.23-25,1,3.24-1.15.14-1.58.19-.1-1.85-.13-2.29,1.79.09Zm-6.7,3.84-.42,2.14-1.49-1.65,0-2.59ZM44.87,34.92l1.36-4.23,4.07-.26h0l2.12,2.78L51,37.85,47.17,38H47l-.27-.38Zm7.31,4.15,2.7,4.24-.08.21L52,39.08Zm1,17.83,1.31-2.5.71,1.34-1.41,2.73-.23-.59Zm-.87,5,1.45-2.8.86,2.24-1.53,2.41v0ZM50.38,78l0-.45-.27-3.41.7-.93.08.24,1.31,4.3-.26.33-1,0Zm4.07-.65,2.48-2.83h.14l1.51.12L56.92,77l-2.28.32Zm4.7,1.36.08-.37L60,74.69l2.44-3.06,2.15-.34-.17,4.24-1.92,2.09L61.2,79l-1-.15Zm2.21.53,2.1-2.3-2.64,3.38ZM66,61.45l-.17-.84L67,60.47l.17,1.06Zm-.46-1.05-2.61.31L61.53,57h.16l3.16,0,.62,3.2Zm-.63-3.63-3.21,0h-.24l-.52-1.43,2.37-5.95,2.47-.19,1.13,3.08L66,54.3Zm-7.17-39.6-.48,0,.44-.08Zm-3.54,0,.22,4-3.5-3.35-1-3.52L51,14.19Zm-6.71,1.16v.57l-1.89-2,0-.25ZM43.4,27l5.32-.09,1.74,2.28-.17,1h-.13l-4,.25L44.4,28.21Zm1.27,8.12,1.2,1.7L46.74,38l-1.81.06-2.06-2.91Zm7.74,14.86.72-1.77,2.15,4.19-.79,1.51-1.84-3.47Zm-.3,15.81.94-1.47,1.28,3L53,69.39l-.7-2.84Zm-1.63,7.45-.6.8-3.67,0v0l-.09-.29,1.79-.18Zm-3.4,8.69,3.24-3.62.61,0,.79,0-3.37,4.29L47,82.78Zm8.28.65L57,81v.43l-2.33,2.55ZM59,79l1,.17,1,.15-.68,1.39-3.13.61,0-.56Zm5.65-3.34.16-.17.27.06h-.06Zm0-.37h0l.16-4.07.18-.31.64.07-1,4.28Zm2.67-8.45L68,65.67l.63-.12v.91l-2.86,4.23-.59-.06ZM68,65.41l-.58-3.61,1.22.07,0,3.43Zm-1-5.19-1.23.15-.06-.28-.61-3.18,1.21-2.74.8-1.8,1.49,0,.63,1.86.07.2-1.37,3.43Zm2.52-5.9-.65-1.93,1.12,0,.34,1.81ZM72,42.77l-2.08.11-.07-.16.48-4.66,1.86-.13ZM69.36,31.92H67.55l-.29-3,1.57-.23Zm-2-3.27-.15,0-3.25-4.06-.81-2.49,1.84.13,3.61,4.82.22,1.37ZM64.83,22,63,21.86l-.45-1.36,1.49-.33ZM57,14.59l1.32,2.11-.49.08-.39-1Zm-6.86,1.54.48,1.7-3,.32-2-1.86.16-2.82,0-.59,2,.07,1.8,1.37ZM46,43.67l1.59-3.81.24-.58,3.88-.19,1.94,3,1.05,1.65-1.64,4-4.45.15-1-1.56Zm1.53,6.67.73,0,4-.23,2,3.7.2.36L53,56.77l-4.38.07-2.22-4.26Zm1.08,6.76L53,57l.68,1.75-1.55,3-5.7.45-.33-.77.28-.49Zm-.8,8.75h4.1l.23,1,.71,2.9L51.2,72.25l-.51.67-2.76.28-1.88.18-1-3.38.25-.38ZM46,74l-2.85,3.83h-.78l2.81-4.16.71-.07Zm-2.66,4,2.86-3.83,3.65,0,0,.48.26,3.37-2.28,2.56-.94,1-3.06-.07-.1-.72Zm10.26.32.62-.7,2.67-.37L57,80.61l-1.77,1.72-2.31-.25Zm12.61-2.86.54-.13-.17.22ZM70,52.16l-1.22,0L67.68,48.9,69,43.18l.67,0,1.63,4.36-1.26,4.4ZM45.68,11.33l1.8,1.36-1.75-.06-1.32-1.14Zm-.34,5.46H40.76l.08-1.46,3.06-.28,1.46,1.35ZM42.72,17H45.4l2.07,2.24,0,2.81-2.56.2-1.09.08-3.22-3.53,0-.36L40.74,17Zm-.45,27.31.18-.4,3.31-.14,2,3.22.63,1-1,2.05L46,50.18,45,48.74ZM46,50.43l1.25-.07-.3.6-.76,1.5-1.24,0,.1-.2Zm-.12,11.12.28.68H46l-.39-.68Zm-1,8.56,1,3.3-.63.06-1.69-3.34Zm-1,11.76,2,0,1,0-.11.86-3.26.38-.26-.6Zm5.07,4.67-.23.23.2-.42Zm.24-.1L49,86l.13-.28,2.29-2.11,1.35-1.24,1.75.19.52,0-1,2-1.13,1.23-2.26.37Zm11.3-5.27-.62,2-.34-.1Zm.09,2.54-.46.57-.34.1.26-.84.34.11Zm.19-.21-.31-.09L60,83.3l.76-2.51,3.82-4.91,1-.25.78.18-2,4.18,0,0ZM70.85,57.11l-2.14,4.51-1.31-.08-.19-1.19,2.3-5.78.85-.11.17.88ZM63.29,18.27l-.06-.09L63,17.71l.18.18.07.18ZM59.2,13.76,59,13.54l-.86-1.12,1.62,1.77Zm-1.51-1.21-2.95-3-.31-.31.12-.08,1.6,1.08L58.21,13Zm-5.15-2.12-.47-.32L51.89,10l-.3-.29h0Zm-.75-.21,3.14,2.14.21.14,1.09.87.09.14,1.26,3.32-1.25.22-4-3.27-.81-1.29-1.22-1.93.4-.09ZM49.7,13l1,1-1,.14-.56-.42-1-.72h.34Zm-6.39-1.38.77-.1,1.48,1.28-.18,3.26-1.32-1.21-.51-2.18ZM40.49,17l-.1,1.73-.49,0L40.45,17Zm0,2,3.21,3.52-.56,2.7-.25,1.23L39,21.67l.82-2.61ZM40.1,35.3l1.61-.08.86,0,2.15,3L42.29,43.7l-1,0H41L38.21,39.6ZM41,44l1.16,0-.12.28-1.18.06Zm1.82,12.6,2-3.85,1.38,0L48.37,57,45.85,61.3h-.36L44,58.7ZM46,62.49h.19l1.35,3.23-2.73,4.14-1.5,0L42.6,68.4ZM41.61,79l.57-.85h.9l.12.8.41,2.78-.53.63-.3-.69Zm1.62,4.33-1.5,1.85-.88,1.09,0-1L43,82.8ZM40.56,87l-.08,1.43-.2.2-.31-.9Zm.18,1.36.09-1.69,1.76-2.18.85-1.06,3.23-.37-.07.58-.23,1.7L43,88.46l-1.08,0Zm5.89-3.07.23-1.71.07-.55,1.38-.16.39,2.56-1.27-.09Zm6.49.7.43-.48.13-.14-.3.61,0,.07-.3.22Zm4.55,1.53.47.36-4.29,3.29-.36.12,1.26-1.82ZM72.81,57.15l-.46,0L71.09,57l-.33-1.78-.15-.8.86-.11,1-.11.16,1.28ZM72.44,54l-.86.11-1,.13-.36-1.9,1.34-4.67h1.92l.23.72-.84,3.75Zm.06-16.7-.44-4.19,1.12-.18.09.25L74,37.24ZM59.91,12.81l2.5,2.68-.67.32L61,15.24l-4.42-4.82.18,0ZM54.23,9.12,50.17,6.87l1.17.18.17.09,2.82,1.91ZM49.8,7l1.63.9,2.72,1.52,3.22,3.21-1.16.34-.92-.62L51.78,9.5,50.32,7.62Zm-3.9.83-.13-.08-1.18-1,3.77,2.62Zm-.23.15,3,1.83.11.36.8,2.64-1,0-.71,0-2.1-1.59L45.11,10,44,8.23,45.45,8Zm-1.93.3,1.77,2.87-1.35.17L41.5,9l-.38-2.25Zm-1.2,18.26-3.88.23L35.75,23l.31-1.12,2.74-.06ZM38.69,27h0l4-.24.1.13-2.1,5.49-1.45,0-1.1,0-1-1.38Zm-.63,5.72,1.82,2.51-2,4.43,2.86,4.27-.21.41-5.37.25-3.88-5.83,2.92-5.92Zm4,11.8,3.68,5.83-1.12,2.19-3.21.11-2.58-4.21,1.91-3.86Zm.32,24,.69,1.36-2.42,0-.58-1.23Zm-1.74,1.65,2.55,0L44,71.78l.91,1.81-2.89,4.29H39.48L38.1,74.18Zm-1.18,8h2.42l-.48.7-2.55.21Zm1.2,10.47,1.24,0,1,0L42,90.78l-.93.12-.68-2Zm2,1.28.54-1.24,3.17-2.94.19-.18.79.06,1.41.1,0,.21-.66,1.38-1.34,1.34L45,90.39l-2.74.35ZM47,88.8,47.8,88l-.43.89-1.68,1.22Zm.7,0,.66-1.4.74-.74,3.78-.61-.09.42-3.43,2.55Zm7.63-2.25,3.39-2.76.62-.5.42.13-.31,1-4.28,4-1.85.42Zm3.06,1.13-.11-.11-.38-.26,2.32-2.85,1.47-.43-1.5,2.21Zm3.53-4-1.42.42.35-.43,3.66-3.45.06-.06.16.09.11.07Zm3.91-4.49-.82.94L64.68,80l2-4.23.4-.53h0l-.25.76Zm4.61-9.43-.2.33L70.47,69l0,.54Zm2.77-12.64h-.1l-.24-1.86-.16-1.24.7-3.12.51-2.27.7,3.8-.81,2.68Zm1.65-4.81-.73-3.93,1.52-.19.46,4,0,.25-.3,0Zm1-4.26,0-1.78L76,49.81ZM75.6,48h0l-1.52.19-.13-.69.26-2.59.23-2.2H75l.66,0,.1.56Zm0-5.57-.65,0h-.55l-1.83-4.7,0-.26h1.56l1.47,4.58Zm-1.29-5.1L74,35.91l.73,2.89Zm-1.2-4.69-1.1.18-2.68-4.37L69.16,28l-.27-.81,1.55.15,2.3,4.26ZM70.6,26.52l1,1.46.52,1.59ZM63.3,17.7l-1.07-1.16L61.9,16l.69-.32,2,2.25Zm-12.11-8,.36.34-1.45.33L48.88,9.6l0-.11,1.81.14ZM45.42,7.73l-.24,0L43.85,8,41.07,6.4l0-.28,2.74.14ZM41.33,9.16l2.49,2.15-.63.08-3-2.25h1.13Zm-4.13.47.12-.53,2.45,0L43,11.58h0l.75,3.22-3,.28L37.55,12l-.08-.58Zm-.67,3,.09-.37.77-.06L40,14.71l.59.56-.09,1.52h-.1L36.83,13ZM30.45,27.17,33,22l2.84-.06-.32,1.16,3,3.83L36.93,31l0,.06,1,1.35-3.64.12-1.76-2.5Zm4.77,17.64,5.24-.24-1.91,3.85,2.64,4.33L39,56.7l-3.26.19L32,51Zm6.07,16.86,3.55-.09h.51l.46.8-3.43,5.9L40,68.44l-1.18-2.52Zm.1,17.42,1.51,3.46-1,1.19-1.16,1.37H37.8L37,81.8l1.69-2.48Zm-3.63,6.27h2.88l-.06,1.23-.81,1L35.84,88Zm.05,6.11,1.25-1.25,1.11-1.12.65,1.9-3,2.94-.88,0ZM53,86.65l.51-.38,1.49.31L52.87,89l-.46.1L52.67,88ZM52.3,89.4l.3-.06-.37.43-1.4.82Zm3,1.19L58.41,88h0l.11-.09h0l1.09-.85-.09.13-.17.14Zm6.73-6.66.54-.63-.87,1.11Zm8.8-12-1-.39.14-.59.59-1,1.5-.51-.18.52-.13.25Zm-.19-2.22.2-2.37.08-.38,0-.05,2.28-4.46,1.14.29-.7,3-1.46,3.44ZM75,58.81l-1.17.28-.46.11,0-1.87.1-.33,1.32-4.38,1,.11.25,0,0,1.49Zm1.57-11.17L76.3,50l-.2-4.77.3,1.6ZM74.12,35.2l.95,2.37L75.33,40ZM62.72,15.46h0l-.07-.07h0L61.1,13.64l.58.48.54.56L63,15.75Zm-6.43-5.37h0L54.8,9l.05,0,0,0Zm-1.71-1.2-.36-.25.4.22ZM48.23,4.77,48,4.67l.21.08Zm.94.68.64.46L48.24,5Zm-3.31-1.4,0,0L50.72,6.7l-1.15-.17L47,4.86l-.4-.15-.86-.53ZM49.45,6.9l2,2.54H51.3l-2.45-2.3.55-.21ZM43.89,5l4.65,2.2L50.9,9.4l-.54,0-1.64-.14-2.88-2L44.17,6.06l-.71-1Zm-.59-.1-.25-.34.51.27ZM40.78,6.24l-1-.59-1.13-.94,2.13,1.35Zm-1.12-.36,1.18.68,0,.13.37,2.22H39.86l-.32-.24L38.08,6.11Zm-1.88.22,1.46,2.53-.4,0-1.59.16-3.51-3,.1-1.71.34,0Zm-.73,4.21.16,1.07.08.59-.62,0,.12-.53Zm-.71,2.49.27.28L40.22,17l-.59,1.87L37,19l-.26,0-2.82-3.34.46-2.86Zm.46,6.46.35,0,2.4-.16-.78,2.49-2.63.06ZM23.62,17.41l5.61-.19,3.5,4.62-2.51,5.21-6.44.24-3.13-5Zm.51,21.75,6.21-.26.78,0L35,44.69l-3.2,6.23-7.17.34L20.8,45.33Zm11.66,18L38.9,57l-.16.29,2.33,4.29-2.54,4.31,0,.05,1.19,2.56-3.78.27L33.2,64.42l-.73-1.16,2.81-5.19Zm-1,23.66.79-1.23,2.75-.23-1.64,2.41.85,3.46L35.5,88l-.6.05-2.34-3.75Zm14.62,8.49,3.23-2.41-.28,1.24-.25,1.1-2.76,2.23-1.54.91-.95-.24Zm3.58,0,.7-.16,1.2-.27-.34.48-1.25.83-.68-.27-.12,0Zm.39,1.13.78-.52-1.09,1.58-2.58,1.69-.61.32-.18-.21,0,0Zm-.5,1.48.32-.21h0l-.15.12ZM65.09,80.54l.16.1-3.38,4Zm.33-.1-.17-.1.73-.93.39-.16.09,0-.27.33ZM67.79,78l-.32.48-.14.06ZM71,72.14v0l.46-.82-.83,2.41-1.27,1.92Zm3.23-7.73.3-1.31-.08.79Zm.2-1.94-1.14-.29,0-2.72,1.6-.38-.27,2.63Zm.77-3.53.25-1.14L75.1,60Zm-23-51.68L50.46,6l.08,0,2,1.39ZM45.37,4.13l-1.7-1,2,.78Zm-6,1.54-1.49.21L34.23,3.79l-.38,0,0-.37,2.92.08.2.13Zm-3.82,2L33.9,6.38l-.11-.22ZM33.76,6.58l3.1,2.47.08.57-.38,1.74-.15.67-2,.15L31.77,9.35l-.06-2.6Zm.7,5.85,1.9-.14-.06.26-1.86,0Zm-.32.4-.46,2.86v.06l2.89,3.42-.69,2.47-2.93.06-3.5-4.62L30,15.93l1.45-3.07,1.49,0ZM23.78,27.54l6.46-.24L34,32.7,31.1,38.62l-7,.29-3.57-5.68,3-5.22Zm-2.39,30.2,3.15-6,.1-.19,7.17-.34,3.36,5.24.4.62-1,1.89-2.3,4.22-3.06.16-3.91.21-.88-1.32ZM41,91.16l.85-.11-.2.44L38.31,94h-.15ZM42.16,91l2.71-.35-.93.67-.39.27L42,91.46Zm1.51.82,1.24-.89-.19,2.16-2.43,1.32-.9-.15Zm3,.5.89.22-.28.19-2,.35Zm1.25.27.15-.08L48,92.6l0,0h-.06Zm1.61-.94.25-.15L52.32,90l.06,0,.69.27-5.21,3.54-.68.29.89-1.3ZM48,94.06,49.55,93l-.28.21.28.22.13.15-2,1.06-1,.22.23-.34Zm2.76-.75L53,92.15l.24-.18,1.07-.57h0l-.68.56-3.53,1.78Zm11.48-8.69-.06,0,.23-.28ZM76,56.35l0,1.45-.44,1.37Zm.48-3.15-.07-1.48.41-3.93.2,0-.33,5.28Zm.34-5.67L76,43.48l0-.72.25,0L77,47.57Zm-.82-5-.2-.78-.43-4.1.16,0,.72,4.88Zm-.69-5.13-1.6-4-.26-1,.09,0,.11,0,1.82,4.92Zm-3.48-9.66-.07,0-2-3L68.86,23l3,4.73ZM66.14,19.3h0l-.05,0ZM43.75,5.91,43,5.23l.22-.06Zm-1.1-.63.81.71-2.55-.12L37.3,3.56l.84-.17Zm-9.15.3L32.81,4.2l.78-.09ZM33.42,6l.19.38-2.15.17.06,2.93,2.7,2.9,0,.23H32.91l-1.51,0-.72-.86L28.37,9l.5-1.09L29.77,6h3.65ZM15.84,13.43l.64,0,4.38-.22,1.8,2.91.74,1.19-3,4.85-6,.29L12.4,17.85Zm1.29,56.51,4.93-.19L25.79,75l-1.9,3.7-.73,1.4-1.32,0-4.63.17-4-4.86L15.42,70Zm7.52,18.87,1.46-2.76.68-1.29,5.55-.34,1.12,1.78,1.22,2L32,91.77l-4.49.29-1.26-1.42ZM56.78,90l2.61-2.09L58.3,88.94Zm6.42-5.83-.7.69,0-.1,3.09-4,.1-.11h0L67,79l.26-.11-1,1.56ZM65,82.32l0,.07-.08.08ZM69.22,23h0l0,.08Zm-2.92-4.1,0,.08,0,0-1.49-1.52-.89-1.14,2.44,2.51ZM45.58,3.28l-.12,0-.87-.38.49.16Zm-3.26.32-1.91-.93.12,0L43.28,3.7ZM10.89,28l3.57-5.36L19,22.45l1.43-.07,3.12,5-3.23,5.69-6.66.31-1-2ZM21.67,97.48l.1-.7L22,95.42l3-.1.81,0L28,97.35l-.95,1.56L24.47,99Zm10-.37.85-.91,1.33-1.44,3.71-.37.24,1.45.09.54-2.78,1.89-2.52.27Zm16-4.2-1,1.4-2,.88L44.38,95l3-2ZM68.76,77.05l0,.1v.13l-1,1.25Zm2.14-3.23,0,0-.09.16Zm1.82-4.75.68-1.22.06.05.09.13,0,.1-1.92,3.7Zm2.1-5.43-.07,0,.46-2.81L76.13,58l.06,0,.12.09,0,0ZM63.37,15.52l-.76-.79.15.08ZM36.43.63,40.91,2V2l1.1.44,1.87,1.19L40.52,2.35l-.4.18L36.17.6Zm-6-.37,1.63,0,3.51,1.35.82,1.12.24.5L33.8,3.21l-3-1.87L30.71.87,30.54.42ZM24.15.3l2,0,1.73,1.21-.18.39-.6,1.38-3.25.08-.94-1.45-.18-.28ZM14.23,3.38l.62-1.19L18.13.67,19.84.53l-.08.21-.06.46,0,.43L17,3.66H17l-2.88.22ZM10.3,6.91,14,4.15l3-.23.33,1.43.2.9L14.37,9.52l-4.12.3Zm-.12,3.16,4.16-.3.18.47,1.12,3-3.45,4.42-5.13.34-.78-4ZM7,18.3,12.18,18l.8,1.77,1.27,2.81-3.57,5.37-5.92.33-1.65-5ZM4.74,28.5l5.93-.34,1.77,3.41,1,2-3.5,6-6.42.3L1.05,34.22ZM3.54,40.09,5.34,40,10,39.79l3.39,5.86-3.24,6.22L7.59,52l-4.06.15L.28,46.2Zm0,12.28,6.58-.25,1.71,2.66,2.11,3.27-2.81,6-3.3.09-3.11.08L.89,58.44ZM4.75,64.49l6.4-.17L13.85,68,15.2,69.9,14,72.9l-1,2.42-5.32.09H7L2.81,70.13ZM7.06,75.66,13,75.57l4,4.86-1.08,3-.54,1.49H13.78l-3.53,0L5.91,80.51Zm3.25,9.55,3.5,0h1.62L19.24,89l-.45,1.6-.5,1.74H14.14L9.92,89Zm3.92,7.42h4.11l2.56,2.06.83.66-.23,1.56-.08.51h-3l-3.88-2.2Zm8.6,7.36-3.38-1-.36-.4-.5-.92H21.5l2.83,1.53.11.68.06.12Zm7.94-.26-2,.14L27.3,99l.93-1.54,2.33-.16.9-.06.9,1.4Zm5.85-.68-1.56.23,0-.06.14-.4,0-.35,2.8-1.91.67-.09,2.11-.29-.32.63-.56.8Zm4-1.79.15-.3.19-.27.25-.59,3.65-2.64.06,0,1.89-.33-2.89,2,.85.4,1.77-.76-.18.25L42.2,97.18l-1.83.34Zm5.86-2.09h0l.25-.06-1.54.79v.17l0,.1L45,96.6l1.54-.78-.45.31-.65.31L41.5,97.87ZM66.5,80.5l.16-.19-.38.53Zm4.86-7.42-.14.18,0,0L71.84,72Zm3.78-9.68.07-.23,0,.21Z" />
		</g>
	</g>
</svg>
