<svg xmlns="http://www.w3.org/2000/svg" viewBox="0 0 129.9 93.23"><defs><style>.cls-1{fill:#ddff93;}.cls-2{fill:#84fffe;}</style></defs><title>marker</title><g id="Слой_2" data-name="Слой 2"><g id="Слой_1-2" data-name="Слой 1"><path class="cls-1" d="M129.9,59V34.25A21.88,21.88,0,0,0,119,15.3L97.54,2.93a21.87,21.87,0,0,0-21.88,0L54.24,15.3a21.88,21.88,0,0,0-10.94,19V59a21.88,21.88,0,0,0,10.94,19L75.66,90.3a21.87,21.87,0,0,0,21.88,0L119,77.93A21.88,21.88,0,0,0,129.9,59Z"/><path class="cls-2" d="M86.6,59V34.25A21.88,21.88,0,0,0,75.66,15.3L54.24,2.93a21.87,21.87,0,0,0-21.88,0L10.94,15.3A21.88,21.88,0,0,0,0,34.25V59a21.88,21.88,0,0,0,10.94,19L32.36,90.3a21.87,21.87,0,0,0,21.88,0L75.66,77.93A21.88,21.88,0,0,0,86.6,59Z"/></g></g></svg>