<svg xmlns="http://www.w3.org/2000/svg" xmlns:xlink="http://www.w3.org/1999/xlink" viewBox="0 0 158.57 182.25"><defs><style>.cls-1{fill:url(#Безымянный_градиент_12);}</style><linearGradient id="Безымянный_градиент_12" x1="10.47" y1="33.41" x2="148.03" y2="148.83" gradientUnits="userSpaceOnUse"><stop offset="0" stop-color="#42deff"/><stop offset="1" stop-color="#28ffe8"/></linearGradient></defs><title>hexagon_gradient</title><g id="Слой_2" data-name="Слой 2"><g id="Layer_1" data-name="Layer 1"><path class="cls-1" d="M81.49,180h0a2.22,2.22,0,0,1-2.22,2.22h0A2.22,2.22,0,0,1,77,180h0a2.22,2.22,0,0,1,2.22-2.23h0A2.22,2.22,0,0,1,81.49,180Zm33.36-20.58a1.12,1.12,0,0,0-1.52-.41h0a1.11,1.11,0,0,0-.4,1.52v0a1.11,1.11,0,0,0,1.51.41h0a1.11,1.11,0,0,0,.41-1.52Zm7.7-4.44a1.11,1.11,0,0,0-1.52-.41h0a1.12,1.12,0,0,0-.41,1.52v0a1.11,1.11,0,0,0,1.52.4h0a1.11,1.11,0,0,0,.41-1.52Zm-3.85,2.22a1.12,1.12,0,0,0-1.52-.41h0a1.11,1.11,0,0,0-.4,1.52v0a1.1,1.1,0,0,0,1.51.4h0a1.1,1.1,0,0,0,.41-1.51ZM99.46,168.34a1.11,1.11,0,0,0-1.52-.41h0a1.12,1.12,0,0,0-.41,1.52v0a1.11,1.11,0,0,0,1.52.4h0a1.11,1.11,0,0,0,.41-1.51Zm26.94-15.55a1.11,1.11,0,0,0-1.52-.41h0a1.12,1.12,0,0,0-.41,1.52h0a1.11,1.11,0,0,0,1.52.41h0a1.12,1.12,0,0,0,.41-1.52ZM87.91,175a1.1,1.1,0,0,0-1.51-.4h0a1.1,1.1,0,0,0-.4,1.51v0a1.11,1.11,0,0,0,1.52.41h0a1.11,1.11,0,0,0,.4-1.52Zm7.7-4.44a1.12,1.12,0,0,0-1.52-.41h0a1.12,1.12,0,0,0-.41,1.52v0a1.12,1.12,0,0,0,1.52.41h0a1.11,1.11,0,0,0,.41-1.52Zm7.7-4.44a1.11,1.11,0,0,0-1.52-.41h0a1.11,1.11,0,0,0-.41,1.52h0a1.11,1.11,0,0,0,1.52.41h0a1.12,1.12,0,0,0,.41-1.52Zm7.69-4.45a1.1,1.1,0,0,0-1.51-.4h0a1.09,1.09,0,0,0-.41,1.51v0a1.12,1.12,0,0,0,1.52.41h0a1.11,1.11,0,0,0,.4-1.52Zm-3.85,2.22a1.1,1.1,0,0,0-1.51-.4h0a1.11,1.11,0,0,0-.41,1.52h0a1.11,1.11,0,0,0,1.52.41h0a1.11,1.11,0,0,0,.4-1.52ZM84.06,177.23a1.09,1.09,0,0,0-1.51-.41h0a1.11,1.11,0,0,0-.41,1.52h0a1.11,1.11,0,0,0,1.52.41h0a1.11,1.11,0,0,0,.4-1.52Zm53.88-31.11a1.12,1.12,0,0,0-1.52-.41h0a1.11,1.11,0,0,0-.4,1.52v0a1.11,1.11,0,0,0,1.52.4h0a1.1,1.1,0,0,0,.4-1.51Zm7.7-4.44a1.11,1.11,0,0,0-1.52-.41h0a1.12,1.12,0,0,0-.41,1.52h0a1.11,1.11,0,0,0,1.52.41h0a1.11,1.11,0,0,0,.41-1.52Zm-3.85,2.22a1.11,1.11,0,0,0-1.52-.41h0a1.11,1.11,0,0,0-.4,1.52v0a1.1,1.1,0,0,0,1.51.4h0a1.09,1.09,0,0,0,.41-1.51Zm-50,28.88a1.11,1.11,0,0,0-1.52-.4h0a1.1,1.1,0,0,0-.4,1.51v0a1.11,1.11,0,0,0,1.51.41h0a1.11,1.11,0,0,0,.41-1.52Zm57.73-33.33a1.11,1.11,0,0,0-1.93,1.11v0a1.11,1.11,0,1,0,1.93-1.11Zm3.85-2.22a1.12,1.12,0,0,0-1.52-.41h0a1.1,1.1,0,0,0-.41,1.51v0a1.12,1.12,0,0,0,1.52.41h0a1.12,1.12,0,0,0,.41-1.52Zm-23.1,13.33a1.1,1.1,0,0,0-1.51-.4h0a1.1,1.1,0,0,0-.41,1.51v0a1.12,1.12,0,0,0,1.52.41h0a1.12,1.12,0,0,0,.41-1.52Zm3.85-2.22a1.11,1.11,0,0,0-1.51-.41h0a1.11,1.11,0,0,0-.41,1.52v0a1.12,1.12,0,0,0,1.52.41h0a1.11,1.11,0,0,0,.4-1.52Zm20.24-13.89,0,0a2.23,2.23,0,0,0,.81,3h0a2.14,2.14,0,0,0,1.12.28v-4.46A2.23,2.23,0,0,0,154.33,134.45Zm-101.51,29h0a1.1,1.1,0,0,0-1.51.4v0a1.11,1.11,0,0,0,.4,1.52h0a1.11,1.11,0,0,0,1.52-.41h0A1.11,1.11,0,0,0,52.82,163.49ZM49,161.27h0a1.1,1.1,0,0,0-1.51.4v0a1.11,1.11,0,0,0,.4,1.52h0a1.12,1.12,0,0,0,1.52-.41v0A1.09,1.09,0,0,0,49,161.27Zm7.7,4.44h0a1.11,1.11,0,0,0-1.52.41h0a1.12,1.12,0,0,0,.41,1.52h0a1.11,1.11,0,0,0,1.52-.41h0A1.11,1.11,0,0,0,56.67,165.71Zm-15.39-8.89h0a1.12,1.12,0,0,0-1.52.41v0a1.1,1.1,0,0,0,.41,1.51h0a1.1,1.1,0,0,0,1.51-.4v0A1.11,1.11,0,0,0,41.28,156.82Zm34.63,20h0a1.09,1.09,0,0,0-1.51.41h0a1.11,1.11,0,0,0,.4,1.52h0a1.11,1.11,0,0,0,1.52-.41h0A1.11,1.11,0,0,0,75.91,176.82Zm-3.84-2.22a1.11,1.11,0,0,0-1.52.4v0a1.11,1.11,0,1,0,1.92,1.11v0A1.1,1.1,0,0,0,72.07,174.6Zm-3.85-2.22h0a1.11,1.11,0,0,0-1.52.4v0a1.11,1.11,0,0,0,.41,1.52h0a1.11,1.11,0,0,0,1.51-.41v0A1.1,1.1,0,0,0,68.22,172.38ZM45.13,159h0a1.12,1.12,0,0,0-1.52.41v0A1.11,1.11,0,0,0,44,161h0a1.11,1.11,0,0,0,1.51-.41v0A1.11,1.11,0,0,0,45.13,159Zm19.24,11.11h0a1.12,1.12,0,0,0-1.52.41v0a1.11,1.11,0,0,0,.41,1.52h0a1.11,1.11,0,0,0,1.51-.41l0,0A1.12,1.12,0,0,0,64.37,170.15Zm-3.85-2.22h0a1.12,1.12,0,0,0-1.52.41v0a1.11,1.11,0,0,0,.41,1.51h0a1.11,1.11,0,0,0,1.52-.4v0A1.12,1.12,0,0,0,60.52,167.93ZM22,145.71h0a1.12,1.12,0,0,0-1.52.41v0a1.1,1.1,0,0,0,.4,1.51h0a1.11,1.11,0,0,0,1.52-.4v0A1.11,1.11,0,0,0,22,145.71Zm3.84,2.22h0a1.11,1.11,0,0,0-1.51.41v0a1.11,1.11,0,0,0,.4,1.52h0a1.12,1.12,0,0,0,1.52-.41v0A1.11,1.11,0,0,0,25.88,147.93Zm-7.69-4.44h0a1.11,1.11,0,0,0-1.52.41v0a1.09,1.09,0,0,0,.41,1.51h0a1.1,1.1,0,0,0,1.51-.4v0A1.11,1.11,0,0,0,18.19,143.49Zm-7.7-4.44h0a1.11,1.11,0,0,0-1.52.4v0A1.12,1.12,0,0,0,9.37,141h0a1.11,1.11,0,0,0,1.52-.41v0A1.11,1.11,0,0,0,10.49,139.05Zm19.24,11.11h0a1.11,1.11,0,0,0-1.52.4v0a1.12,1.12,0,0,0,.41,1.52h0a1.12,1.12,0,0,0,1.52-.41v0A1.1,1.1,0,0,0,29.73,150.16ZM6.64,136.83h0a1.12,1.12,0,0,0-1.52.41v0a1.12,1.12,0,0,0,.41,1.52h0A1.12,1.12,0,0,0,7,138.36v0A1.1,1.1,0,0,0,6.64,136.83Zm7.7,4.44h0a1.11,1.11,0,0,0-1.52.41h0a1.11,1.11,0,0,0,.41,1.52h0a1.09,1.09,0,0,0,1.51-.41h0A1.12,1.12,0,0,0,14.34,141.27Zm19.24,11.11h0a1.11,1.11,0,0,0-1.52.4v0a1.12,1.12,0,0,0,.41,1.52h0a1.11,1.11,0,0,0,1.52-.41h0A1.12,1.12,0,0,0,33.58,152.38Zm3.85,2.22h0a1.11,1.11,0,0,0-1.52.41h0a1.11,1.11,0,0,0,.41,1.52h0a1.11,1.11,0,0,0,1.52-.4v0A1.12,1.12,0,0,0,37.43,154.6ZM4.15,136.7l0,0a2.23,2.23,0,0,0-.82-3h0a2.27,2.27,0,0,0-1.13-.29v4.46A2.22,2.22,0,0,0,4.15,136.7Zm151-45.57h0a1.12,1.12,0,0,0,1.11,1.11V90A1.12,1.12,0,0,0,155.13,91.13Zm0,13.33h0a1.11,1.11,0,0,0,1.11,1.11v-2.22A1.12,1.12,0,0,0,155.13,104.46Zm0-44.44a1.11,1.11,0,0,0,1.11,1.11V58.92A1.11,1.11,0,0,0,155.13,60Zm0,4.45h0a1.12,1.12,0,0,0,1.11,1.11V63.36A1.11,1.11,0,0,0,155.13,64.47Zm0-13.33h0a1.12,1.12,0,0,0,1.11,1.11V50A1.11,1.11,0,0,0,155.13,51.14Zm0,4.44h0a1.12,1.12,0,0,0,1.11,1.11V54.47A1.12,1.12,0,0,0,155.13,55.58Zm0,22.22h0a1.12,1.12,0,0,0,1.11,1.11V76.69A1.12,1.12,0,0,0,155.13,77.8Zm0-4.44h0a1.11,1.11,0,0,0,1.11,1.1V72.25A1.11,1.11,0,0,0,155.13,73.36Zm0,8.88h0a1.11,1.11,0,0,0,1.11,1.11V81.13A1.12,1.12,0,0,0,155.13,82.24Zm0,4.45h0a1.12,1.12,0,0,0,1.11,1.11V85.58A1.11,1.11,0,0,0,155.13,86.69Zm0-17.78A1.11,1.11,0,0,0,156.24,70V67.8A1.12,1.12,0,0,0,155.13,68.91Zm0,26.66h0a1.11,1.11,0,0,0,1.11,1.11V94.47A1.11,1.11,0,0,0,155.13,95.57Zm0,4.45h0a1.12,1.12,0,0,0,1.11,1.11V98.91A1.12,1.12,0,0,0,155.13,100Zm0,8.89h0a1.12,1.12,0,0,0,1.11,1.11V107.8A1.11,1.11,0,0,0,155.13,108.91Zm0,22.21h0a1.11,1.11,0,0,0,1.11,1.1V130A1.11,1.11,0,0,0,155.13,131.12Zm0-4.44h0a1.11,1.11,0,0,0,1.11,1.11v-2.22A1.12,1.12,0,0,0,155.13,126.68Zm1.11-82.21A2.23,2.23,0,0,0,154,46.69h0a2.23,2.23,0,0,0,2.23,2.23h0V44.47Zm-1.11,68.88h0a1.12,1.12,0,0,0,1.11,1.11v-2.22A1.12,1.12,0,0,0,155.13,113.35Zm0,4.44h0a1.11,1.11,0,0,0,1.11,1.11v-2.22A1.12,1.12,0,0,0,155.13,117.79Zm0,4.45h0a1.12,1.12,0,0,0,1.11,1.11v-2.22A1.11,1.11,0,0,0,155.13,122.24ZM2.25,70a1.11,1.11,0,0,0,0-2.22h0V70h0Zm0,4.45a1.11,1.11,0,0,0,1.11-1.11h0a1.11,1.11,0,0,0-1.11-1.12h0v2.21h0Zm0,4.44A1.11,1.11,0,0,0,3.36,77.8h0a1.11,1.11,0,0,0-1.11-1.11h0v2.22h0Zm0-13.33a1.11,1.11,0,0,0,1.11-1.11h0a1.1,1.1,0,0,0-1.11-1.11h0v2.22h0Zm0,17.77a1.1,1.1,0,0,0,1.11-1.11h0a1.11,1.11,0,0,0-1.11-1.11h0v2.22h0Zm0-31.1a1.11,1.11,0,0,0,1.11-1.11h0A1.1,1.1,0,0,0,2.25,50h0v2.22h0Zm2.24-5.56h0a2.23,2.23,0,0,0-2.23-2.22h0v4.45h0A2.23,2.23,0,0,0,4.49,46.69ZM2.25,61.14a1.12,1.12,0,0,0,0-2.23h0v2.21h0Zm0-4.45a1.11,1.11,0,0,0,1.11-1.11h0a1.11,1.11,0,0,0-1.11-1.11h0v2.22h0Zm0,35.55a1.11,1.11,0,0,0,1.11-1.11h0A1.11,1.11,0,0,0,2.25,90h0v2.22h0Zm0-4.44a1.11,1.11,0,0,0,1.11-1.11h0a1.1,1.1,0,0,0-1.11-1.11h0V87.8h0Zm0,35.55a1.11,1.11,0,0,0,1.11-1.11h0a1.1,1.1,0,0,0-1.11-1.11h0v2.22h0Zm0-4.45a1.1,1.1,0,0,0,1.11-1.11h0a1.11,1.11,0,0,0-1.11-1.11h0v2.22h0Zm0,8.89a1.1,1.1,0,0,0,1.11-1.11h0a1.11,1.11,0,0,0-1.11-1.11h0v2.22h0Zm0-13.33a1.11,1.11,0,0,0,1.11-1.11h0a1.11,1.11,0,0,0-1.11-1.11h0v2.22h0Zm0-17.77a1.11,1.11,0,0,0,1.11-1.12h0a1.11,1.11,0,0,0-1.11-1.11h0v2.21h0Zm0,4.44A1.11,1.11,0,0,0,3.36,100h0a1.11,1.11,0,0,0-1.11-1.11h0v2.22h0Zm0,4.44a1.1,1.1,0,0,0,1.11-1.11h0a1.11,1.11,0,0,0-1.11-1.11h0v2.22h0Zm0,4.45a1.11,1.11,0,0,0,1.11-1.11h0a1.1,1.1,0,0,0-1.11-1.11h0V110h0Zm0,22.22a1.11,1.11,0,0,0,1.11-1.11h0A1.11,1.11,0,0,0,2.25,130h0v2.21h0Zm8.66-90.57a1.12,1.12,0,0,0-1.52-.41h0A1.12,1.12,0,0,0,9,42.78v0a1.12,1.12,0,0,0,1.52.41h0a1.11,1.11,0,0,0,.41-1.51ZM57.09,15a1.11,1.11,0,0,0-1.52-.41h0a1.12,1.12,0,0,0-.41,1.52v0a1.11,1.11,0,0,0,1.52.4h0A1.11,1.11,0,0,0,57.1,15ZM22.45,35a1.11,1.11,0,0,0-1.52-.4h0a1.1,1.1,0,0,0-.4,1.51v0a1.11,1.11,0,0,0,1.52.41h0a1.11,1.11,0,0,0,.4-1.52ZM18.6,37.23a1.09,1.09,0,0,0-1.51-.41h0a1.11,1.11,0,0,0-.41,1.52v0a1.11,1.11,0,0,0,1.52.4h0a1.11,1.11,0,0,0,.4-1.52ZM7.06,43.89a1.11,1.11,0,0,0-1.52-.4h0A1.11,1.11,0,0,0,5.13,45v0a1.12,1.12,0,0,0,1.52.41h0a1.12,1.12,0,0,0,.41-1.52ZM53.24,17.23a1.12,1.12,0,0,0-1.52-.41h0a1.12,1.12,0,0,0-.41,1.52l0,0a1.1,1.1,0,0,0,1.51.4h0a1.1,1.1,0,0,0,.41-1.51ZM14.75,39.45A1.1,1.1,0,0,0,13.24,39h0a1.11,1.11,0,0,0-.41,1.52v0a1.11,1.11,0,0,0,1.52.4h0a1.11,1.11,0,0,0,.41-1.51Zm23.1-13.33a1.11,1.11,0,0,0-1.52-.41h0a1.11,1.11,0,0,0-.41,1.52v0a1.11,1.11,0,0,0,1.52.4h0a1.12,1.12,0,0,0,.41-1.52Zm11.54-6.67A1.12,1.12,0,0,0,47.87,19h0a1.1,1.1,0,0,0-.4,1.51v0A1.11,1.11,0,0,0,49,21h0a1.11,1.11,0,0,0,.41-1.52Zm-3.85,2.22a1.1,1.1,0,0,0-1.51-.4h0a1.1,1.1,0,0,0-.4,1.51v0a1.11,1.11,0,0,0,1.52.41h0a1.11,1.11,0,0,0,.4-1.52ZM30.15,30.56a1.12,1.12,0,0,0-1.52-.41h0a1.12,1.12,0,0,0-.41,1.52v0a1.12,1.12,0,0,0,1.52.41h0a1.11,1.11,0,0,0,.41-1.52ZM34,28.34a1.12,1.12,0,0,0-1.52-.41h0a1.12,1.12,0,0,0-.41,1.52v0a1.11,1.11,0,0,0,1.52.4h0A1.11,1.11,0,0,0,34,28.36Zm-7.7,4.44a1.11,1.11,0,0,0-1.52-.4h0a1.1,1.1,0,0,0-.4,1.51v0a1.11,1.11,0,0,0,1.51.41h0a1.11,1.11,0,0,0,.41-1.52Zm15.39-8.89a1.1,1.1,0,0,0-1.51-.4h0A1.11,1.11,0,0,0,39.77,25h0a1.11,1.11,0,0,0,1.52.41h0a1.11,1.11,0,0,0,.4-1.52Zm19.25-11.1a1.11,1.11,0,0,0-1.52-.41h0A1.12,1.12,0,0,0,59,13.9h0a1.11,1.11,0,0,0,1.52.41h0A1.12,1.12,0,0,0,61,12.8ZM76.33,3.9a1.11,1.11,0,0,0-1.52-.41h0A1.11,1.11,0,0,0,74.41,5V5a1.1,1.1,0,0,0,1.51.4h0a1.1,1.1,0,0,0,.41-1.51ZM72.48,6.12a1.11,1.11,0,1,0-1.92,1.11v0a1.11,1.11,0,0,0,1.92-1.11Zm-7.7,4.44a1.1,1.1,0,0,0-1.51-.4h0a1.1,1.1,0,0,0-.41,1.51v0a1.11,1.11,0,0,0,1.52.41h0a1.11,1.11,0,0,0,.4-1.52Zm3.85-2.22a1.11,1.11,0,0,0-1.51-.41h0a1.09,1.09,0,0,0-.41,1.51v0a1.12,1.12,0,0,0,1.52.41h0a1.11,1.11,0,0,0,.4-1.52Zm29.29,6h0a1.11,1.11,0,0,0,1.52-.41h0A1.12,1.12,0,0,0,99,12.38h0a1.11,1.11,0,0,0-1.52.41h0A1.12,1.12,0,0,0,97.92,14.32Zm3.85,2.22h0a1.11,1.11,0,0,0,1.52-.4v0a1.12,1.12,0,0,0-.41-1.52h0a1.11,1.11,0,0,0-1.52.41v0A1.1,1.1,0,0,0,101.77,16.54Zm3.85,2.22h0a1.1,1.1,0,0,0,1.51-.4l0,0a1.12,1.12,0,0,0-.41-1.52h0a1.12,1.12,0,0,0-1.52.41v0A1.1,1.1,0,0,0,105.62,18.76ZM82.53,5.43h0A1.1,1.1,0,0,0,84,5V5a1.11,1.11,0,0,0-.4-1.52h0a1.11,1.11,0,0,0-1.52.41v0A1.09,1.09,0,0,0,82.53,5.43Zm3.84,2.22h0a1.11,1.11,0,0,0,1.51-.41v0a1.11,1.11,0,0,0-.4-1.52h0A1.12,1.12,0,0,0,86,6.12v0A1.1,1.1,0,0,0,86.37,7.65Zm3.85,2.23h0a1.12,1.12,0,0,0,1.52-.41v0a1.09,1.09,0,0,0-.41-1.51h0a1.11,1.11,0,0,0-1.51.41v0A1.11,1.11,0,0,0,90.22,9.88Zm3.85,2.22h0a1.11,1.11,0,0,0,1.52-.41v0a1.1,1.1,0,0,0-.41-1.51h0a1.1,1.1,0,0,0-1.51.4l0,0A1.12,1.12,0,0,0,94.07,12.1ZM144.1,41h0a1.11,1.11,0,0,0,1.52-.4v0a1.11,1.11,0,0,0-.41-1.52h0a1.1,1.1,0,0,0-1.51.41l0,0A1.11,1.11,0,0,0,144.1,41ZM109.47,21h0a1.11,1.11,0,0,0,1.51-.41v0a1.11,1.11,0,0,0-.4-1.52h0a1.12,1.12,0,0,0-1.52.41v0A1.11,1.11,0,0,0,109.47,21Zm23.09,13.33h0a1.11,1.11,0,0,0,1.51-.41v0a1.1,1.1,0,0,0-.4-1.51h0a1.11,1.11,0,0,0-1.52.4v0A1.11,1.11,0,0,0,132.56,34.32Zm3.84,2.22h0a1.11,1.11,0,0,0,1.52-.41h0a1.11,1.11,0,0,0-.4-1.52h0A1.11,1.11,0,0,0,136,35v0A1.11,1.11,0,0,0,136.4,36.54Zm3.85,2.22h0a1.11,1.11,0,0,0,1.52-.4v0a1.11,1.11,0,0,0-.41-1.52h0a1.09,1.09,0,0,0-1.51.41h0A1.11,1.11,0,0,0,140.25,38.76Zm7.7,4.45a1.12,1.12,0,0,0,1.52-.41v0a1.11,1.11,0,0,0-1.93-1.11v0A1.12,1.12,0,0,0,148,43.21Zm3.85,2.22h0a1.12,1.12,0,0,0,1.52-.41v0a1.11,1.11,0,0,0-.41-1.51h0a1.11,1.11,0,0,0-1.52.4v0A1.11,1.11,0,0,0,151.8,45.43Zm-34.64-20h0a1.11,1.11,0,0,0,1.52-.41h0a1.11,1.11,0,0,0-.41-1.52h0a1.1,1.1,0,0,0-1.51.4v0A1.11,1.11,0,0,0,117.16,25.43ZM121,27.65h0a1.11,1.11,0,0,0,1.52-.4v0a1.11,1.11,0,0,0-.41-1.52h0a1.11,1.11,0,0,0-1.52.41h0A1.12,1.12,0,0,0,121,27.65Zm-7.7-4.44h0a1.11,1.11,0,0,0,1.52-.41v0a1.1,1.1,0,0,0-.4-1.51h0a1.1,1.1,0,0,0-1.51.4v0A1.11,1.11,0,0,0,113.31,23.21Zm11.55,6.66h0a1.11,1.11,0,0,0,1.52-.4v0a1.12,1.12,0,0,0-.41-1.52h0a1.12,1.12,0,0,0-1.52.41v0A1.11,1.11,0,0,0,124.86,29.87Zm3.85,2.23h0a1.12,1.12,0,0,0,1.52-.41v0a1.12,1.12,0,0,0-.41-1.52h0a1.12,1.12,0,0,0-1.52.41v0A1.11,1.11,0,0,0,128.71,32.1ZM78.12,4.18h0a2.21,2.21,0,0,0,3-.81l0,0a2.21,2.21,0,0,0-.81-3h0a2.23,2.23,0,0,0-3,.81l0,0A2.21,2.21,0,0,0,78.12,4.18Zm80,132.52,0,0a2.23,2.23,0,0,0-.81-3h0a2.26,2.26,0,0,0-1.12-.29v4.46A2.21,2.21,0,0,0,158.16,136.7ZM156.27,70a1.11,1.11,0,0,0,0-2.22h0V70h0Zm0,4.45a1.11,1.11,0,0,0,1.11-1.11h0a1.12,1.12,0,0,0-1.11-1.12h0v2.21h0Zm0,4.44a1.11,1.11,0,0,0,1.11-1.11h0a1.11,1.11,0,0,0-1.11-1.11h0v2.22h0Zm0-13.33a1.11,1.11,0,0,0,1.11-1.11h0a1.11,1.11,0,0,0-1.11-1.11h0v2.22h0Zm0,17.77a1.11,1.11,0,0,0,1.11-1.11h0a1.11,1.11,0,0,0-1.11-1.11h0v2.22h0Zm0-31.1a1.11,1.11,0,0,0,1.11-1.11h0A1.11,1.11,0,0,0,156.27,50h0v2.22h0Zm2.3-5.56h0a2.25,2.25,0,0,0-2.27-2.22h0v4.45h0A2.25,2.25,0,0,0,158.57,46.69Zm-2.3,14.45a1.12,1.12,0,0,0,0-2.23h0v2.21h0Zm0-4.45a1.11,1.11,0,0,0,1.11-1.11h0a1.11,1.11,0,0,0-1.11-1.11h0v2.22h0Zm0,35.55a1.11,1.11,0,0,0,1.11-1.11h0A1.11,1.11,0,0,0,156.27,90h0v2.22h0Zm0-4.44a1.11,1.11,0,0,0,1.11-1.11h0a1.11,1.11,0,0,0-1.11-1.11h0V87.8h0Zm0,35.55a1.11,1.11,0,0,0,1.11-1.11h0a1.11,1.11,0,0,0-1.11-1.11h0v2.22h0Zm0-4.45a1.11,1.11,0,0,0,1.11-1.11h0a1.11,1.11,0,0,0-1.11-1.11h0v2.22h0Zm0,8.89a1.11,1.11,0,0,0,1.11-1.11h0a1.11,1.11,0,0,0-1.11-1.11h0v2.22h0Zm0-13.33a1.11,1.11,0,0,0,1.11-1.11h0a1.11,1.11,0,0,0-1.11-1.11h0v2.22h0Zm0-17.77a1.12,1.12,0,0,0,1.11-1.12h0a1.11,1.11,0,0,0-1.11-1.11h0v2.21h0Zm0,4.44a1.11,1.11,0,0,0,1.11-1.11h0a1.11,1.11,0,0,0-1.11-1.11h0v2.22h0Zm0,4.44a1.11,1.11,0,0,0,1.11-1.11h0a1.11,1.11,0,0,0-1.11-1.11h0v2.22h0Zm0,4.45a1.11,1.11,0,0,0,1.11-1.11h0a1.11,1.11,0,0,0-1.11-1.11h0V110h0Zm0,22.22a1.11,1.11,0,0,0,1.11-1.11h0a1.11,1.11,0,0,0-1.11-1.11h0v2.21h0Zm-156,2.21,0,0a2.23,2.23,0,0,0,.81,3h0a2.13,2.13,0,0,0,1.11.28v-4.46A2.21,2.21,0,0,0,.32,134.45Zm.8-43.32h0a1.12,1.12,0,0,0,1.1,1.11V90A1.12,1.12,0,0,0,1.12,91.13Zm0,13.33h0a1.11,1.11,0,0,0,1.1,1.11v-2.22A1.12,1.12,0,0,0,1.12,104.46ZM1.12,60a1.11,1.11,0,0,0,1.1,1.11V58.92A1.1,1.1,0,0,0,1.12,60Zm0,4.45h0a1.12,1.12,0,0,0,1.1,1.11V63.36A1.11,1.11,0,0,0,1.12,64.47Zm0-13.33h0a1.12,1.12,0,0,0,1.1,1.11V50A1.11,1.11,0,0,0,1.12,51.14Zm0,4.44h0a1.12,1.12,0,0,0,1.1,1.11V54.47A1.12,1.12,0,0,0,1.12,55.58Zm0,22.22h0a1.12,1.12,0,0,0,1.1,1.11V76.69A1.12,1.12,0,0,0,1.12,77.8Zm0-4.44h0a1.1,1.1,0,0,0,1.1,1.1V72.25A1.11,1.11,0,0,0,1.12,73.36Zm0,8.88h0a1.11,1.11,0,0,0,1.1,1.11V81.13A1.12,1.12,0,0,0,1.12,82.24Zm0,4.45h0a1.12,1.12,0,0,0,1.1,1.11V85.58A1.11,1.11,0,0,0,1.12,86.69Zm0-17.78A1.11,1.11,0,0,0,2.22,70V67.8A1.12,1.12,0,0,0,1.12,68.91Zm0,26.66h0a1.11,1.11,0,0,0,1.1,1.11V94.47A1.1,1.1,0,0,0,1.12,95.57Zm0,4.45h0a1.12,1.12,0,0,0,1.1,1.11V98.91A1.12,1.12,0,0,0,1.12,100Zm0,8.89h0A1.12,1.12,0,0,0,2.22,110V107.8A1.11,1.11,0,0,0,1.12,108.91Zm0,22.21h0a1.1,1.1,0,0,0,1.1,1.1V130A1.1,1.1,0,0,0,1.12,131.12Zm0-4.44h0a1.11,1.11,0,0,0,1.1,1.11v-2.22A1.12,1.12,0,0,0,1.12,126.68Zm1.1-82.21A2.23,2.23,0,0,0,0,46.69H0a2.23,2.23,0,0,0,2.22,2.23h0V44.47Zm-1.1,68.88h0a1.12,1.12,0,0,0,1.1,1.11v-2.22A1.12,1.12,0,0,0,1.12,113.35Zm0,4.44h0a1.11,1.11,0,0,0,1.1,1.11v-2.22A1.12,1.12,0,0,0,1.12,117.79Zm0,4.45h0a1.12,1.12,0,0,0,1.1,1.11v-2.22A1.11,1.11,0,0,0,1.12,122.24Z"/></g></g></svg>