<svg xmlns="http://www.w3.org/2000/svg" xmlns:xlink="http://www.w3.org/1999/xlink" viewBox="0 0 56 36"><defs><style>.cls-1{fill:url(#Безымянный_градиент_11);}</style><linearGradient id="Безымянный_градиент_11" x1="7.99" y1="3.59" x2="49.62" y2="38.52" gradientUnits="userSpaceOnUse"><stop offset="0" stop-color="#5dc8ff"/><stop offset="1" stop-color="#1fefd9"/></linearGradient></defs><title>quotes</title><g id="Слой_2" data-name="Слой 2"><g id="Режим_изоляции" data-name="Режим изоляции"><path class="cls-1" d="M44,0c4.74,0,12,14.06,12,20.56v7.32A8,8,0,0,1,48,36H41a8,8,0,0,1-8-8.12V21a7.84,7.84,0,0,1,8-8h6A93.79,93.79,0,0,0,44,0ZM11,0a93.79,93.79,0,0,1,3,13H8a7.84,7.84,0,0,0-8,8v6.9A8,8,0,0,0,8,36h7a8,8,0,0,0,8-8.12V20.56C23,14.06,15.74,0,11,0Z"/></g></g></svg>